<?xml version="1.0" encoding="UTF-8"?>
<svg width="24px" height="25px" viewBox="0 0 24 25" version="1.1" xmlns="http://www.w3.org/2000/svg" xmlns:xlink="http://www.w3.org/1999/xlink">
    <title>Shape</title>
    <g id="Page-1" stroke="none" stroke-width="1" fill="none" fill-rule="evenodd">
        <g id="Desktop---Buscador-tienda---Búsqueda-Copy" transform="translate(-306.000000, -93.000000)" fill="#005c1f" fill-rule="nonzero">
            <g id="cabecera" transform="translate(20.532258, 19.000000)">
                <g id="buscador" transform="translate(3.467742, 62.000000)">
                    <g id="noun_Search_3747558" transform="translate(282.000000, 12.000000)">
                        <path d="M10.1052632,0.13157864 C13.9821024,0.130618499 17.5075929,2.37823874 19.1428271,5.89333367 C20.7780613,9.40842859 20.2261745,13.5528587 17.7280702,16.5175439 L23.6491228,22.6578947 L21.8947368,24.4561404 L15.877193,18.2368421 C12.3665568,20.715517 7.6623359,20.6643365 4.20645871,18.1098682 C0.750581513,15.5553998 -0.678349448,11.0731605 0.661413947,6.98984936 C2.00117734,2.90653824 5.80778895,0.142117591 10.1052632,0.13157864 Z M10.1052632,2.42982456 C5.87108008,2.42982456 2.43859649,5.86230815 2.43859649,10.0964912 C2.43859649,14.3306743 5.87108008,17.7631579 10.1052632,17.7631579 C14.3394462,17.7631579 17.7719298,14.3306743 17.7719298,10.0964912 C17.7719298,5.86230815 14.3394462,2.42982456 10.1052632,2.42982456 Z" id="Shape"></path>
                    </g>
                </g>
            </g>
        </g>
    </g>
</svg>
